<?xml version="1.0" encoding="utf-8"?>
<svg width="869.563px" height="307px" viewBox="0 0 869.563 307" version="1.1" xmlns:xlink="http://www.w3.org/1999/xlink" xmlns="http://www.w3.org/2000/svg">
  <path d="M66.4453 81.2812L29.4609 81.2812L22.4297 102.375L0 102.375L38.1094 0L57.6562 0L95.9766 102.375L73.5469 102.375L66.4453 81.2812L66.4453 81.2812ZM35.1563 64.1953L60.75 64.1953L47.8828 25.875L35.1563 64.1953L35.1563 64.1953Z" id="А-" fill="#1976D2" fill-rule="evenodd" stroke="none" />
  <path d="M126.719 34.4375L122.969 34.4375L122.969 18.9375L104.75 18.9375L104.75 34.4375L101 34.4375L101 0.625L104.75 0.625L104.75 15.7813L122.969 15.7813L122.969 0.625L126.719 0.625L126.719 34.4375L126.719 34.4375ZM158.062 34.4375C157.687 33.375 157.448 31.8021 157.344 29.7188C156.031 31.4271 154.359 32.7448 152.328 33.6719C150.297 34.599 148.146 35.0625 145.875 35.0625C142.625 35.0625 139.995 34.1563 137.984 32.3438C135.974 30.5313 134.969 28.2396 134.969 25.4688C134.969 22.1771 136.339 19.573 139.078 17.6563C141.818 15.7396 145.635 14.7813 150.531 14.7813L157.312 14.7813L157.312 10.9375C157.312 8.52083 156.568 6.6198 155.078 5.2344C153.589 3.849 151.417 3.1563 148.562 3.1563C145.958 3.1563 143.802 3.82297 142.094 5.1563C140.385 6.48963 139.531 8.0938 139.531 9.9688L135.781 9.9375C135.781 7.25003 137.031 4.9219 139.531 2.9531C142.031 0.984367 145.104 0 148.75 0C152.521 0 155.495 0.942703 157.672 2.8281C159.849 4.71356 160.969 7.3438 161.031 10.7188L161.031 26.7188C161.031 29.9896 161.375 32.4375 162.062 34.0625L162.062 34.4375L158.062 34.4375L158.062 34.4375ZM146.312 31.75C148.812 31.75 151.047 31.1458 153.016 29.9375C154.984 28.7292 156.417 27.1146 157.312 25.0938L157.312 17.6563L150.625 17.6563C146.896 17.698 143.979 18.3802 141.875 19.7031C139.771 21.026 138.719 22.8438 138.719 25.1563C138.719 27.0521 139.422 28.625 140.828 29.875C142.234 31.125 144.062 31.75 146.312 31.75L146.312 31.75ZM197 0.625L197 34.4375L193.25 34.4375L193.25 3.875L179.406 3.875L178.813 16.5186C178.563 21.2012 178.094 24.7756 177.406 27.2417C176.719 29.7078 175.698 31.5237 174.344 32.6892C172.99 33.8547 171.188 34.4375 168.938 34.4375L167.5 34.4375L167.5 31.125L168.656 31.0625C170.802 31.0208 172.344 29.9792 173.281 27.9375C174.219 25.8958 174.833 22.25 175.125 17L175.813 0.625L197 0.625L197 0.625ZM229.25 0.625L233 0.625L233 34.4375L229.25 34.4375L229.25 6.6563L211 34.4375L207.281 34.4375L207.281 0.625L211 0.625L211 28.4375L229.25 0.625L229.25 0.625ZM262.813 9.56252C262.813 7.52084 262.052 5.94794 260.531 4.84381C259.01 3.73961 256.917 3.18752 254.25 3.18752C251.833 3.18752 249.766 3.80731 248.047 5.04691C246.328 6.28651 245.469 7.85421 245.469 9.75002L241.75 9.75002C241.75 6.93755 242.953 4.61465 245.359 2.78131C247.766 0.947975 250.729 0.031311 254.25 0.031311C258.125 0.031311 261.146 0.864647 263.313 2.53131C265.48 4.19798 266.563 6.56255 266.563 9.62502C266.563 11.25 266.063 12.7188 265.063 14.0313C264.063 15.3438 262.605 16.3646 260.688 17.0938C265.021 18.2813 267.188 20.9688 267.188 25.1563C267.188 28.198 266.011 30.6042 263.656 32.375C261.302 34.1459 258.177 35.0313 254.281 35.0313C250.51 35.0313 247.385 34.0834 244.906 32.1875C242.427 30.2917 241.188 27.8125 241.188 24.75L244.938 24.75C244.938 26.7917 245.839 28.4948 247.641 29.8594C249.443 31.224 251.656 31.9063 254.281 31.9063C257.136 31.9063 259.37 31.3073 260.984 30.1094C262.599 28.9115 263.406 27.2813 263.406 25.2188C263.406 22.9479 262.667 21.3125 261.188 20.3125C259.709 19.3125 257.448 18.8125 254.406 18.8125L249.25 18.8125L249.25 15.5625L255.031 15.5625C260.219 15.4375 262.813 13.4375 262.813 9.56252L262.813 9.56252Z" id="нализ" fill="#1976D2" fill-rule="evenodd" stroke="none" />
  <path d="M223.219 57.875C223.219 63.1459 222.052 67.3282 219.719 70.4219C217.385 73.5156 214.26 75.0625 210.344 75.0625C205.719 75.0625 202.177 73.4375 199.719 70.1875L199.719 87.4375L196 87.4375L196 40.625L199.469 40.625L199.656 45.4063C202.094 41.8021 205.625 40 210.25 40C214.292 40 217.464 41.5313 219.766 44.5938C222.068 47.6563 223.219 51.9063 223.219 57.3438L223.219 57.875L223.219 57.875ZM219.469 57.2188C219.469 52.9063 218.583 49.5 216.813 47C215.042 44.5 212.573 43.25 209.406 43.25C207.115 43.25 205.146 43.8021 203.5 44.9063C201.854 46.0104 200.594 47.6146 199.719 49.7188L199.719 65.9375C200.615 67.875 201.896 69.3542 203.563 70.375C205.229 71.3959 207.198 71.9063 209.469 71.9063C212.615 71.9063 215.068 70.6511 216.828 68.1406C218.589 65.6302 219.469 61.9896 219.469 57.2188L219.469 57.2188ZM229.438 57.0313C229.438 53.7813 230.068 50.8542 231.328 48.25C232.589 45.6459 234.37 43.6198 236.672 42.1719C238.974 40.724 241.583 40 244.5 40C249 40 252.646 41.5781 255.438 44.7344C258.229 47.8907 259.625 52.073 259.625 57.2813L259.625 58.0625C259.625 61.3334 258.995 64.2761 257.734 66.8906C256.474 69.5052 254.698 71.5208 252.406 72.9375C250.115 74.3542 247.5 75.0625 244.563 75.0625C240.083 75.0625 236.443 73.4844 233.641 70.3281C230.839 67.1719 229.438 62.9896 229.438 57.7813L229.438 57.0313L229.438 57.0313ZM233.188 58.0625C233.188 62.1042 234.234 65.4219 236.328 68.0156C238.422 70.6094 241.167 71.9063 244.563 71.9063C247.938 71.9063 250.672 70.6094 252.766 68.0156C254.859 65.4219 255.906 62 255.906 57.75L255.906 57.0313C255.906 54.448 255.427 52.0834 254.469 49.9375C253.51 47.7917 252.167 46.1302 250.438 44.9531C248.708 43.776 246.729 43.1875 244.5 43.1875C241.167 43.1875 238.448 44.4948 236.344 47.1094C234.24 49.724 233.188 53.1459 233.188 57.375L233.188 58.0625L233.188 58.0625ZM280.438 75.0625C277.563 75.0625 274.964 74.3542 272.641 72.9375C270.318 71.5208 268.51 69.5469 267.219 67.0156C265.927 64.4844 265.281 61.6459 265.281 58.5L265.281 57.1563C265.281 53.9063 265.911 50.9792 267.172 48.375C268.432 45.7709 270.188 43.724 272.438 42.2344C274.688 40.7448 277.125 40 279.75 40C283.854 40 287.109 41.401 289.516 44.2031C291.922 47.0052 293.125 50.8334 293.125 55.6875L293.125 57.7813L269 57.7813L269 58.5C269 62.3333 270.099 65.526 272.297 68.0781C274.495 70.6302 277.26 71.9063 280.594 71.9063C282.594 71.9063 284.359 71.5417 285.891 70.8125C287.422 70.0834 288.813 68.9167 290.063 67.3125L292.406 69.0938C289.656 73.0729 285.667 75.0625 280.438 75.0625L280.438 75.0625ZM279.75 43.1875C276.937 43.1875 274.568 44.2188 272.641 46.2813C270.714 48.3438 269.542 51.1146 269.125 54.5938L289.406 54.5938L289.406 54.1875C289.302 50.9375 288.375 48.2917 286.625 46.25C284.875 44.2083 282.583 43.1875 279.75 43.1875L279.75 43.1875ZM309.594 58.9375L304.406 58.9375L304.406 74.4375L300.625 74.4375L300.625 40.625L304.406 40.625L304.406 55.625L309.531 55.625L321.937 40.625L326.656 40.625L312.781 57.0313L328.187 74.4375L323.25 74.4375L309.594 58.9375L309.594 58.9375ZM357.844 43.8125L345.531 43.8125L345.531 74.4375L341.781 74.4375L341.781 43.8125L329.937 43.8125L329.937 40.625L357.844 40.625L357.844 43.8125L357.844 43.8125ZM386.187 40.625L389.937 40.625L389.937 74.4375L386.187 74.4375L386.187 46.6563L367.937 74.4375L364.219 74.4375L364.219 40.625L367.937 40.625L367.937 68.4375L386.187 40.625L386.187 40.625ZM427.125 57.875C427.125 63.1459 425.959 67.3282 423.625 70.4219C421.292 73.5156 418.167 75.0625 414.25 75.0625C409.625 75.0625 406.083 73.4375 403.625 70.1875L403.625 87.4375L399.906 87.4375L399.906 40.625L403.375 40.625L403.562 45.4063C406 41.8021 409.532 40 414.156 40C418.198 40 421.37 41.5313 423.672 44.5938C425.974 47.6563 427.125 51.9063 427.125 57.3438L427.125 57.875L427.125 57.875ZM423.375 57.2188C423.375 52.9063 422.49 49.5 420.719 47C418.948 44.5 416.479 43.25 413.312 43.25C411.021 43.25 409.052 43.8021 407.406 44.9063C405.76 46.0104 404.5 47.6146 403.625 49.7188L403.625 65.9375C404.521 67.875 405.803 69.3542 407.469 70.375C409.136 71.3959 411.105 71.9063 413.375 71.9063C416.521 71.9063 418.974 70.6511 420.734 68.1406C422.495 65.6302 423.375 61.9896 423.375 57.2188L423.375 57.2188ZM433.344 57.0313C433.344 53.7813 433.974 50.8542 435.234 48.25C436.495 45.6459 438.276 43.6198 440.578 42.1719C442.88 40.724 445.49 40 448.406 40C452.906 40 456.552 41.5781 459.344 44.7344C462.136 47.8907 463.531 52.073 463.531 57.2813L463.531 58.0625C463.531 61.3334 462.901 64.2761 461.64 66.8906C460.38 69.5052 458.604 71.5208 456.312 72.9375C454.021 74.3542 451.407 75.0625 448.469 75.0625C443.99 75.0625 440.349 73.4844 437.547 70.3281C434.745 67.1719 433.344 62.9896 433.344 57.7813L433.344 57.0313L433.344 57.0313ZM437.094 58.0625C437.094 62.1042 438.141 65.4219 440.234 68.0156C442.328 70.6094 445.073 71.9063 448.469 71.9063C451.844 71.9063 454.578 70.6094 456.672 68.0156C458.766 65.4219 459.812 62 459.812 57.75L459.812 57.0313C459.812 54.448 459.333 52.0834 458.375 49.9375C457.417 47.7917 456.073 46.1302 454.344 44.9531C452.615 43.776 450.636 43.1875 448.406 43.1875C445.073 43.1875 442.354 44.4948 440.25 47.1094C438.146 49.724 437.094 53.1459 437.094 57.375L437.094 58.0625L437.094 58.0625ZM471.656 74.4375L471.656 40.625L484.062 40.625C488.354 40.625 491.646 41.3906 493.937 42.9219C496.229 44.4532 497.375 46.698 497.375 49.6563C497.375 51.3438 496.865 52.849 495.844 54.1719C494.823 55.4948 493.333 56.4584 491.375 57.0625C493.583 57.4792 495.359 58.4271 496.703 59.9063C498.047 61.3854 498.719 63.1042 498.719 65.0625C498.719 68.0417 497.62 70.349 495.422 71.9844C493.224 73.6198 490.115 74.4375 486.094 74.4375L471.656 74.4375L471.656 74.4375ZM475.375 58.875L475.375 71.3125L486.219 71.3125C489.031 71.3125 491.198 70.7708 492.719 69.6875C494.24 68.6042 495 67.0417 495 65C495 63.125 494.24 61.6354 492.719 60.5313C491.198 59.4271 489.031 58.875 486.219 58.875L475.375 58.875L475.375 58.875ZM475.375 55.75L484.844 55.75C490.719 55.6667 493.656 53.6667 493.656 49.75C493.656 47.6875 492.849 46.1823 491.234 45.2344C489.619 44.2865 487.229 43.8125 484.062 43.8125L475.375 43.8125L475.375 55.75L475.375 55.75ZM528.375 74.4375C528 73.375 527.76 71.8021 527.656 69.7188C526.344 71.4271 524.672 72.7448 522.64 73.6719C520.61 74.599 518.459 75.0625 516.187 75.0625C512.937 75.0625 510.307 74.1563 508.297 72.3438C506.287 70.5313 505.281 68.2396 505.281 65.4688C505.281 62.1771 506.651 59.573 509.39 57.6563C512.13 55.7396 515.948 54.7813 520.844 54.7813L527.625 54.7813L527.625 50.9375C527.625 48.5208 526.88 46.6198 525.39 45.2344C523.901 43.849 521.729 43.1563 518.875 43.1563C516.271 43.1563 514.115 43.823 512.406 45.1563C510.698 46.4896 509.844 48.0938 509.844 49.9688L506.094 49.9375C506.094 47.25 507.344 44.9219 509.844 42.9531C512.344 40.9844 515.417 40 519.062 40C522.834 40 525.808 40.9427 527.984 42.8281C530.162 44.7136 531.282 47.3438 531.344 50.7188L531.344 66.7188C531.344 69.9896 531.688 72.4375 532.375 74.0625L532.375 74.4375L528.375 74.4375L528.375 74.4375ZM516.625 71.75C519.125 71.75 521.36 71.1458 523.328 69.9375C525.297 68.7292 526.729 67.1146 527.625 65.0938L527.625 57.6563L520.937 57.6563C517.209 57.698 514.292 58.3802 512.187 59.7031C510.083 61.026 509.031 62.8438 509.031 65.1563C509.031 67.0521 509.734 68.625 511.14 69.875C512.547 71.125 514.375 71.75 516.625 71.75L516.625 71.75ZM567.281 74.4375L563.531 74.4375L563.531 58.9375L545.312 58.9375L545.312 74.4375L541.562 74.4375L541.562 40.625L545.312 40.625L545.312 55.7813L563.531 55.7813L563.531 40.625L567.281 40.625L567.281 74.4375L567.281 74.4375ZM599.5 40.625L603.25 40.625L603.25 74.4375L599.5 74.4375L599.5 46.6563L581.25 74.4375L577.531 74.4375L577.531 40.625L581.25 40.625L581.25 68.4375L599.5 40.625L599.5 40.625ZM626.344 75.0625C623.469 75.0625 620.87 74.3542 618.547 72.9375C616.224 71.5208 614.416 69.5469 613.125 67.0156C611.833 64.4844 611.187 61.6459 611.187 58.5L611.187 57.1563C611.187 53.9063 611.817 50.9792 613.078 48.375C614.339 45.7709 616.094 43.724 618.344 42.2344C620.594 40.7448 623.031 40 625.656 40C629.76 40 633.015 41.401 635.422 44.2031C637.828 47.0052 639.031 50.8334 639.031 55.6875L639.031 57.7813L614.906 57.7813L614.906 58.5C614.906 62.3333 616.005 65.526 618.203 68.0781C620.401 70.6302 623.167 71.9063 626.5 71.9063C628.5 71.9063 630.266 71.5417 631.797 70.8125C633.328 70.0834 634.719 68.9167 635.969 67.3125L638.312 69.0938C635.562 73.0729 631.573 75.0625 626.344 75.0625L626.344 75.0625ZM625.656 43.1875C622.844 43.1875 620.474 44.2188 618.547 46.2813C616.62 48.3438 615.448 51.1146 615.031 54.5938L635.312 54.5938L635.312 54.1875C635.208 50.9375 634.281 48.2917 632.531 46.25C630.781 44.2083 628.49 43.1875 625.656 43.1875L625.656 43.1875Z" id="роектирование" fill="#1976D2" fill-rule="evenodd" stroke="none" />
  <path d="M303.094 128.531C302.719 127.469 302.479 125.896 302.375 123.812C301.063 125.521 299.391 126.839 297.359 127.766C295.328 128.693 293.177 129.156 290.906 129.156C287.656 129.156 285.026 128.25 283.016 126.437C281.005 124.625 280 122.333 280 119.562C280 116.271 281.37 113.667 284.109 111.75C286.849 109.833 290.667 108.875 295.563 108.875L302.344 108.875L302.344 105.031C302.344 102.615 301.599 100.713 300.109 99.3281C298.62 97.9427 296.448 97.25 293.594 97.25C290.99 97.25 288.833 97.9167 287.125 99.25C285.417 100.583 284.563 102.187 284.563 104.062L280.813 104.031C280.813 101.344 282.063 99.0156 284.563 97.0468C287.063 95.0781 290.135 94.0937 293.781 94.0937C297.552 94.0937 300.526 95.0364 302.703 96.9218C304.88 98.8073 306 101.437 306.063 104.812L306.063 120.812C306.063 124.083 306.406 126.531 307.094 128.156L307.094 128.531L303.094 128.531L303.094 128.531ZM291.344 125.844C293.844 125.844 296.078 125.24 298.047 124.031C300.016 122.823 301.448 121.208 302.344 119.188L302.344 111.75L295.656 111.75C291.927 111.792 289.01 112.474 286.906 113.797C284.802 115.12 283.75 116.937 283.75 119.25C283.75 121.146 284.453 122.719 285.859 123.969C287.266 125.219 289.094 125.844 291.344 125.844L291.344 125.844ZM335.844 103.656C335.844 101.615 335.083 100.042 333.562 98.9375C332.042 97.8333 329.948 97.2812 327.281 97.2812C324.865 97.2812 322.797 97.901 321.078 99.1406C319.359 100.38 318.5 101.948 318.5 103.844L314.781 103.844C314.781 101.031 315.984 98.7083 318.391 96.875C320.797 95.0417 323.76 94.125 327.281 94.125C331.156 94.125 334.177 94.9583 336.344 96.625C338.51 98.2917 339.594 100.656 339.594 103.719C339.594 105.344 339.094 106.812 338.094 108.125C337.094 109.437 335.635 110.458 333.719 111.188C338.052 112.375 340.219 115.062 340.219 119.25C340.219 122.292 339.042 124.698 336.687 126.469C334.333 128.24 331.208 129.125 327.312 129.125C323.542 129.125 320.417 128.177 317.937 126.281C315.458 124.385 314.219 121.906 314.219 118.844L317.969 118.844C317.969 120.885 318.87 122.589 320.672 123.953C322.474 125.318 324.687 126 327.312 126C330.167 126 332.401 125.401 334.016 124.203C335.63 123.005 336.437 121.375 336.437 119.313C336.437 117.042 335.698 115.406 334.219 114.406C332.74 113.406 330.479 112.906 327.437 112.906L322.281 112.906L322.281 109.656L328.062 109.656C333.25 109.531 335.844 107.531 335.844 103.656L335.844 103.656ZM375.625 111.969C375.625 117.24 374.458 121.422 372.125 124.516C369.792 127.609 366.667 129.156 362.75 129.156C358.125 129.156 354.583 127.531 352.125 124.281L352.125 141.531L348.406 141.531L348.406 94.7187L351.875 94.7187L352.062 99.5C354.5 95.8958 358.031 94.0937 362.656 94.0937C366.698 94.0937 369.87 95.625 372.172 98.6875C374.474 101.75 375.625 106 375.625 111.437L375.625 111.969L375.625 111.969ZM371.875 111.312C371.875 107 370.99 103.594 369.219 101.094C367.448 98.5937 364.979 97.3437 361.813 97.3437C359.521 97.3437 357.552 97.8958 355.906 99C354.26 100.104 353 101.708 352.125 103.812L352.125 120.031C353.021 121.969 354.302 123.448 355.969 124.469C357.635 125.49 359.604 126 361.875 126C365.021 126 367.474 124.745 369.234 122.234C370.995 119.724 371.875 116.083 371.875 111.312L371.875 111.312ZM405.25 128.531C404.875 127.469 404.636 125.896 404.531 123.812C403.219 125.521 401.547 126.839 399.516 127.766C397.485 128.693 395.334 129.156 393.063 129.156C389.813 129.156 387.183 128.25 385.172 126.437C383.161 124.625 382.156 122.333 382.156 119.562C382.156 116.271 383.526 113.667 386.266 111.75C389.005 109.833 392.823 108.875 397.719 108.875L404.5 108.875L404.5 105.031C404.5 102.615 403.755 100.713 402.266 99.3281C400.776 97.9427 398.604 97.25 395.75 97.25C393.146 97.25 390.99 97.9167 389.281 99.25C387.573 100.583 386.719 102.187 386.719 104.062L382.969 104.031C382.969 101.344 384.219 99.0156 386.719 97.0468C389.219 95.0781 392.292 94.0937 395.938 94.0937C399.709 94.0937 402.682 95.0364 404.859 96.9218C407.036 98.8073 408.156 101.437 408.219 104.812L408.219 120.812C408.219 124.083 408.563 126.531 409.25 128.156L409.25 128.531L405.25 128.531L405.25 128.531ZM393.5 125.844C396 125.844 398.234 125.24 400.203 124.031C402.172 122.823 403.604 121.208 404.5 119.188L404.5 111.75L397.813 111.75C394.084 111.792 391.167 112.474 389.063 113.797C386.958 115.12 385.906 116.937 385.906 119.25C385.906 121.146 386.609 122.719 388.016 123.969C389.422 125.219 391.25 125.844 393.5 125.844L393.5 125.844ZM431.813 96.9687C436.104 96.9687 439.583 98.3697 442.25 101.172C444.916 103.974 446.25 107.688 446.25 112.313L446.25 113.125C446.25 116.187 445.64 118.943 444.422 121.391C443.203 123.839 441.453 125.745 439.172 127.109C436.89 128.474 434.271 129.156 431.313 129.156C426.854 129.156 423.244 127.672 420.484 124.703C417.724 121.734 416.344 117.771 416.344 112.813L416.344 109.813C416.344 102.813 417.677 97.2187 420.344 93.0312C423.01 88.8437 426.802 86.3437 431.719 85.5312C434.823 85.0312 437.005 84.3541 438.266 83.5C439.526 82.6458 440.156 81.4791 440.156 80L443.375 80C443.375 81.75 443.01 83.1979 442.281 84.3437C441.552 85.4896 440.458 86.4114 439 87.1093C437.542 87.8072 435.313 88.3958 432.313 88.875C428.875 89.4167 426.109 90.8802 424.016 93.2656C421.922 95.651 420.562 98.8437 419.938 102.844C421.271 101.094 422.943 99.677 424.953 98.5937C426.963 97.5104 429.25 96.9687 431.813 96.9687L431.813 96.9687ZM420.094 112.344L420.094 113.125C420.094 116.937 421.125 120.036 423.188 122.422C425.25 124.807 427.958 126 431.313 126C434.687 126 437.396 124.797 439.438 122.391C441.479 119.984 442.5 116.823 442.5 112.906L442.5 112.094C442.5 108.573 441.463 105.698 439.391 103.469C437.317 101.24 434.604 100.125 431.25 100.125C427.896 100.125 425.198 101.255 423.156 103.516C421.114 105.776 420.094 108.719 420.094 112.344L420.094 112.344ZM451.344 111.125C451.344 107.875 451.974 104.948 453.234 102.344C454.494 99.7396 456.276 97.7135 458.578 96.2656C460.88 94.8177 463.489 94.0937 466.406 94.0937C470.906 94.0937 474.552 95.6718 477.344 98.8281C480.135 101.984 481.531 106.167 481.531 111.375L481.531 112.156C481.531 115.427 480.901 118.37 479.641 120.984C478.38 123.599 476.604 125.615 474.313 127.031C472.021 128.448 469.406 129.156 466.469 129.156C461.989 129.156 458.349 127.578 455.547 124.422C452.745 121.266 451.344 117.083 451.344 111.875L451.344 111.125L451.344 111.125ZM455.094 112.156C455.094 116.198 456.14 119.516 458.234 122.109C460.328 124.703 463.073 126 466.469 126C469.843 126 472.578 124.703 474.672 122.109C476.766 119.516 477.813 116.094 477.813 111.844L477.813 111.125C477.813 108.542 477.333 106.177 476.375 104.031C475.417 101.885 474.073 100.224 472.344 99.0468C470.614 97.8697 468.635 97.2812 466.406 97.2812C463.072 97.2812 460.354 98.5885 458.25 101.203C456.146 103.818 455.094 107.24 455.094 111.469L455.094 112.156L455.094 112.156ZM512.844 97.9062L500.531 97.9062L500.531 128.531L496.781 128.531L496.781 97.9062L484.938 97.9062L484.938 94.7187L512.844 94.7187L512.844 97.9062L512.844 97.9062ZM528.156 113.031L522.969 113.031L522.969 128.531L519.188 128.531L519.188 94.7187L522.969 94.7187L522.969 109.719L528.094 109.719L540.5 94.7187L545.219 94.7187L531.344 111.125L546.75 128.531L541.813 128.531L528.156 113.031L528.156 113.031ZM573.469 128.531C573.094 127.469 572.854 125.896 572.75 123.812C571.437 125.521 569.765 126.839 567.734 127.766C565.703 128.693 563.552 129.156 561.281 129.156C558.031 129.156 555.401 128.25 553.391 126.437C551.38 124.625 550.375 122.333 550.375 119.562C550.375 116.271 551.745 113.667 554.484 111.75C557.224 109.833 561.042 108.875 565.938 108.875L572.719 108.875L572.719 105.031C572.719 102.615 571.974 100.713 570.484 99.3281C568.995 97.9427 566.823 97.25 563.969 97.25C561.365 97.25 559.209 97.9167 557.5 99.25C555.792 100.583 554.938 102.187 554.938 104.062L551.188 104.031C551.188 101.344 552.438 99.0156 554.938 97.0468C557.438 95.0781 560.511 94.0937 564.156 94.0937C567.927 94.0937 570.901 95.0364 573.078 96.9218C575.255 98.8073 576.375 101.437 576.438 104.812L576.438 120.812C576.438 124.083 576.782 126.531 577.469 128.156L577.469 128.531L573.469 128.531L573.469 128.531ZM561.719 125.844C564.219 125.844 566.453 125.24 568.422 124.031C570.391 122.823 571.823 121.208 572.719 119.188L572.719 111.75L566.031 111.75C562.302 111.792 559.386 112.474 557.281 113.797C555.177 115.12 554.125 116.937 554.125 119.25C554.125 121.146 554.828 122.719 556.234 123.969C557.641 125.219 559.469 125.844 561.719 125.844L561.719 125.844Z" id="азработка" fill="#1976D2" fill-rule="evenodd" stroke="none" />
  <path d="M375.469 158.969C379.76 158.969 383.24 160.37 385.906 163.172C388.573 165.974 389.906 169.688 389.906 174.313L389.906 175.125C389.906 178.187 389.297 180.943 388.078 183.391C386.859 185.839 385.109 187.745 382.828 189.109C380.547 190.474 377.927 191.156 374.969 191.156C370.51 191.156 366.901 189.672 364.141 186.703C361.38 183.734 360 179.771 360 174.813L360 171.813C360 164.813 361.333 159.219 364 155.031C366.667 150.844 370.458 148.344 375.375 147.531C378.479 147.031 380.661 146.354 381.922 145.5C383.182 144.646 383.813 143.479 383.813 142L387.031 142C387.031 143.75 386.667 145.198 385.938 146.344C385.208 147.49 384.115 148.411 382.656 149.109C381.198 149.807 378.969 150.396 375.969 150.875C372.531 151.417 369.766 152.88 367.672 155.266C365.578 157.651 364.219 160.844 363.594 164.844C364.927 163.094 366.599 161.677 368.609 160.594C370.62 159.51 372.906 158.969 375.469 158.969L375.469 158.969ZM363.75 174.344L363.75 175.125C363.75 178.937 364.781 182.036 366.844 184.422C368.906 186.807 371.615 188 374.969 188C378.344 188 381.052 186.797 383.094 184.391C385.135 181.984 386.156 178.823 386.156 174.906L386.156 174.094C386.156 170.573 385.12 167.698 383.047 165.469C380.974 163.24 378.26 162.125 374.906 162.125C371.552 162.125 368.854 163.255 366.813 165.516C364.771 167.776 363.75 170.719 363.75 174.344L363.75 174.344ZM409.563 188C412.167 188 414.349 187.266 416.109 185.797C417.87 184.328 418.823 182.427 418.969 180.094L422.563 180.094C422.458 182.156 421.812 184.036 420.625 185.734C419.437 187.432 417.859 188.76 415.891 189.719C413.922 190.677 411.813 191.156 409.563 191.156C405.125 191.156 401.609 189.615 399.016 186.531C396.422 183.448 395.125 179.302 395.125 174.094L395.125 172.969C395.125 169.635 395.708 166.687 396.875 164.125C398.042 161.562 399.714 159.583 401.891 158.187C404.068 156.792 406.615 156.094 409.531 156.094C413.24 156.094 416.297 157.198 418.703 159.406C421.109 161.615 422.396 164.521 422.563 168.125L418.969 168.125C418.802 165.479 417.849 163.344 416.109 161.719C414.37 160.094 412.177 159.281 409.531 159.281C406.156 159.281 403.536 160.5 401.672 162.937C399.807 165.375 398.875 168.792 398.875 173.187L398.875 174.281C398.875 178.594 399.807 181.958 401.672 184.375C403.536 186.792 406.167 188 409.563 188L409.563 188ZM456.031 156.719L456.031 190.531L452.281 190.531L452.281 159.969L438.438 159.969L437.844 172.612C437.594 177.295 437.125 180.869 436.438 183.335C435.75 185.802 434.729 187.617 433.375 188.783C432.021 189.948 430.219 190.531 427.969 190.531L426.531 190.531L426.531 187.219L427.688 187.156C429.833 187.115 431.375 186.073 432.313 184.031C433.25 181.99 433.865 178.344 434.156 173.094L434.844 156.719L456.031 156.719L456.031 156.719ZM476.782 185.156L486.657 156.719L490.688 156.719L476.25 196.281L475.5 198.031C473.646 202.135 470.782 204.188 466.907 204.188C466.011 204.188 465.053 204.042 464.032 203.75L464 200.656L465.938 200.844C467.771 200.844 469.256 200.391 470.391 199.484C471.526 198.578 472.49 197.021 473.282 194.813L474.938 190.25L462.188 156.719L466.282 156.719L476.782 185.156L476.782 185.156ZM522.313 174.906L517.813 174.906L517.813 190.531L514.063 190.531L514.063 174.906L509.594 174.906L497.094 190.531L492.344 190.531L506.344 173.187L493.907 156.719L498.438 156.719L509.532 171.562L514.063 171.562L514.063 156.719L517.813 156.719L517.813 171.562L522.375 171.562L533.469 156.719L538.063 156.719L525.563 173.187L539.594 190.531L534.813 190.531L522.313 174.906L522.313 174.906ZM567.781 156.719L571.531 156.719L571.531 190.531L567.781 190.531L567.781 162.75L549.531 190.531L545.813 190.531L545.813 156.719L549.531 156.719L549.531 184.531L567.781 156.719L567.781 156.719ZM581.938 190.531L581.938 156.719L594.344 156.719C598.635 156.719 601.927 157.484 604.219 159.016C606.51 160.547 607.656 162.792 607.656 165.75C607.656 167.437 607.146 168.943 606.125 170.266C605.104 171.589 603.615 172.552 601.656 173.156C603.865 173.573 605.641 174.521 606.984 176C608.328 177.479 609 179.198 609 181.156C609 184.135 607.901 186.443 605.703 188.078C603.505 189.713 600.396 190.531 596.375 190.531L581.938 190.531L581.938 190.531ZM585.657 174.969L585.657 187.406L596.5 187.406C599.312 187.406 601.479 186.865 603 185.781C604.521 184.698 605.282 183.135 605.282 181.094C605.282 179.219 604.521 177.729 603 176.625C601.479 175.521 599.312 174.969 596.5 174.969L585.657 174.969L585.657 174.969ZM585.657 171.844L595.125 171.844C601 171.76 603.938 169.76 603.938 165.844C603.938 163.781 603.13 162.276 601.516 161.328C599.901 160.38 597.51 159.906 594.344 159.906L585.657 159.906L585.657 171.844L585.657 171.844ZM638.656 190.531C638.281 189.469 638.042 187.896 637.938 185.812C636.625 187.521 634.953 188.839 632.922 189.766C630.89 190.693 628.739 191.156 626.469 191.156C623.219 191.156 620.588 190.25 618.578 188.437C616.568 186.625 615.563 184.333 615.563 181.562C615.563 178.271 616.932 175.667 619.672 173.75C622.411 171.833 626.229 170.875 631.125 170.875L637.906 170.875L637.906 167.031C637.906 164.615 637.161 162.713 635.672 161.328C634.182 159.943 632.01 159.25 629.156 159.25C626.552 159.25 624.396 159.917 622.688 161.25C620.979 162.583 620.125 164.187 620.125 166.062L616.375 166.031C616.375 163.344 617.625 161.016 620.125 159.047C622.625 157.078 625.698 156.094 629.344 156.094C633.114 156.094 636.088 157.036 638.266 158.922C640.443 160.807 641.563 163.437 641.625 166.812L641.625 182.812C641.625 186.083 641.969 188.531 642.656 190.156L642.656 190.531L638.656 190.531L638.656 190.531ZM626.906 187.844C629.406 187.844 631.641 187.24 633.609 186.031C635.578 184.823 637.01 183.208 637.906 181.188L637.906 173.75L631.219 173.75C627.489 173.792 624.573 174.474 622.469 175.797C620.365 177.12 619.313 178.937 619.313 181.25C619.313 183.146 620.016 184.719 621.422 185.969C622.828 187.219 624.656 187.844 626.906 187.844L626.906 187.844ZM677.563 190.531L673.813 190.531L673.813 175.031L655.594 175.031L655.594 190.531L651.844 190.531L651.844 156.719L655.594 156.719L655.594 171.875L673.813 171.875L673.813 156.719L677.563 156.719L677.563 190.531L677.563 190.531ZM709.781 156.719L713.531 156.719L713.531 190.531L709.781 190.531L709.781 162.75L691.531 190.531L687.813 190.531L687.813 156.719L691.531 156.719L691.531 184.531L709.781 156.719L709.781 156.719ZM736.625 191.156C733.75 191.156 731.151 190.448 728.828 189.031C726.505 187.615 724.698 185.641 723.407 183.109C722.115 180.578 721.469 177.74 721.469 174.594L721.469 173.25C721.469 170 722.099 167.073 723.36 164.469C724.62 161.865 726.375 159.818 728.625 158.328C730.875 156.838 733.312 156.094 735.938 156.094C740.042 156.094 743.297 157.495 745.703 160.297C748.109 163.099 749.313 166.927 749.313 171.781L749.313 173.875L725.188 173.875L725.188 174.594C725.188 178.427 726.287 181.62 728.485 184.172C730.683 186.724 733.448 188 736.782 188C738.782 188 740.547 187.635 742.078 186.906C743.609 186.177 745 185.01 746.25 183.406L748.594 185.187C745.844 189.167 741.854 191.156 736.625 191.156L736.625 191.156ZM735.938 159.281C733.125 159.281 730.755 160.312 728.828 162.375C726.901 164.437 725.729 167.208 725.313 170.687L745.594 170.687L745.594 170.281C745.49 167.031 744.563 164.385 742.813 162.344C741.063 160.302 738.771 159.281 735.938 159.281L735.938 159.281Z" id="бслуживание" fill="#1976D2" fill-rule="evenodd" stroke="none" />
  <path d="M21.9688 260.188L25.7188 260.188L25.7188 294L21.9688 294L21.9688 266.219L3.71875 294L0 294L0 260.188L3.71875 260.188L3.71875 288L21.9688 260.188L21.9688 260.188ZM61.6875 294L57.9375 294L57.9375 278.5L39.7188 278.5L39.7188 294L35.9688 294L35.9688 260.188L39.7188 260.188L39.7188 275.344L57.9375 275.344L57.9375 260.188L61.6875 260.188L61.6875 294L61.6875 294ZM70.2813 277.375C70.2813 271.875 71.3593 267.531 73.5155 264.344C75.6718 261.156 78.6562 259.563 82.4688 259.563C84.6562 259.563 86.5104 260.052 88.0313 261.031L88.0313 246L91.7499 246L91.7499 261.156C93.2916 260.094 95.2083 259.563 97.4999 259.563C101.104 259.563 103.989 261.01 106.156 263.906C108.323 266.802 109.5 270.833 109.688 276L109.719 278.031C109.719 283.177 108.636 287.234 106.469 290.203C104.302 293.172 101.334 294.656 97.563 294.656C95.3126 294.656 93.3749 294.167 91.7499 293.188L91.7499 307L88.0313 307L88.0313 293.219C86.427 294.177 84.552 294.656 82.4063 294.656C78.8437 294.656 75.9895 293.307 73.8438 290.609C71.6979 287.911 70.5208 284.177 70.3124 279.406L70.2813 277.375L70.2813 277.375ZM106 277.375C106 272.833 105.182 269.26 103.547 266.656C101.912 264.052 99.6253 262.75 96.688 262.75C94.5627 262.75 92.9167 263.208 91.75 264.125L91.75 290.281C93.0625 291.094 94.7292 291.5 96.75 291.5C99.6667 291.5 101.938 290.328 103.563 287.984C105.188 285.641 106 282.104 106 277.375L106 277.375ZM74.0313 278.031C74.0313 282.281 74.8125 285.589 76.3749 287.953C77.9375 290.318 80.1875 291.5 83.1249 291.5C85.0833 291.5 86.7187 291.073 88.0313 290.219L88.0313 264.031C86.8229 263.177 85.2083 262.75 83.1874 262.75C80.2708 262.75 78.0156 264.047 76.4218 266.641C74.8281 269.234 74.0313 273.031 74.0313 278.031L74.0313 278.031ZM116 276.594C116 273.344 116.63 270.417 117.891 267.813C119.151 265.208 120.932 263.182 123.234 261.734C125.537 260.286 128.146 259.563 131.063 259.563C135.563 259.563 139.209 261.141 142 264.297C144.792 267.453 146.188 271.635 146.188 276.844L146.188 277.625C146.188 280.896 145.558 283.839 144.297 286.453C143.036 289.068 141.26 291.083 138.969 292.5C136.677 293.917 134.062 294.625 131.125 294.625C126.646 294.625 123.005 293.047 120.203 289.891C117.401 286.734 116 282.552 116 277.344L116 276.594L116 276.594ZM119.75 277.625C119.75 281.667 120.797 284.984 122.891 287.578C124.984 290.172 127.729 291.469 131.125 291.469C134.5 291.469 137.235 290.172 139.328 287.578C141.422 284.984 142.469 281.563 142.469 277.313L142.469 276.594C142.469 274.01 141.99 271.646 141.031 269.5C140.073 267.354 138.729 265.693 137 264.516C135.271 263.339 133.292 262.75 131.063 262.75C127.73 262.75 125.011 264.057 122.906 266.672C120.802 269.286 119.75 272.708 119.75 276.938L119.75 277.625L119.75 277.625ZM181.094 277.438C181.094 282.708 179.927 286.891 177.594 289.984C175.261 293.078 172.136 294.625 168.219 294.625C163.594 294.625 160.052 293 157.594 289.75L157.594 307L153.875 307L153.875 260.188L157.344 260.188L157.531 264.969C159.969 261.365 163.5 259.563 168.125 259.563C172.167 259.563 175.339 261.094 177.641 264.156C179.943 267.219 181.094 271.469 181.094 276.906L181.094 277.438L181.094 277.438ZM177.344 276.781C177.344 272.469 176.459 269.063 174.688 266.563C172.917 264.063 170.448 262.813 167.281 262.813C164.99 262.813 163.021 263.365 161.375 264.469C159.729 265.573 158.469 267.177 157.594 269.281L157.594 285.5C158.49 287.438 159.771 288.917 161.438 289.938C163.105 290.958 165.073 291.469 167.344 291.469C170.49 291.469 172.943 290.214 174.703 287.703C176.464 285.193 177.344 281.552 177.344 276.781L177.344 276.781ZM208.094 288.938L221.531 260.188L226.156 260.188L226.156 294L222.406 294L222.406 266.25L209.406 294L206.75 294L193.5 265.625L193.5 294L189.781 294L189.781 260.188L194.688 260.188L208.094 288.938L208.094 288.938ZM257.5 294C257.125 292.938 256.886 291.365 256.781 289.281C255.469 290.99 253.797 292.307 251.766 293.234C249.735 294.161 247.584 294.625 245.313 294.625C242.063 294.625 239.433 293.719 237.422 291.906C235.411 290.094 234.406 287.802 234.406 285.031C234.406 281.74 235.776 279.135 238.516 277.219C241.255 275.302 245.073 274.344 249.969 274.344L256.75 274.344L256.75 270.5C256.75 268.083 256.005 266.182 254.516 264.797C253.026 263.411 250.854 262.719 248 262.719C245.396 262.719 243.24 263.385 241.531 264.719C239.823 266.052 238.969 267.656 238.969 269.531L235.219 269.5C235.219 266.813 236.469 264.484 238.969 262.516C241.469 260.547 244.542 259.563 248.188 259.563C251.959 259.563 254.932 260.505 257.109 262.391C259.286 264.276 260.406 266.906 260.469 270.281L260.469 286.281C260.469 289.552 260.813 292 261.5 293.625L261.5 294L257.5 294L257.5 294ZM245.75 291.313C248.25 291.313 250.484 290.708 252.453 289.5C254.422 288.292 255.854 286.677 256.75 284.656L256.75 277.219L250.063 277.219C246.334 277.26 243.417 277.943 241.313 279.266C239.208 280.589 238.156 282.406 238.156 284.719C238.156 286.615 238.859 288.188 240.266 289.438C241.672 290.688 243.5 291.313 245.75 291.313L245.75 291.313ZM270.688 260.188L274.438 260.188L274.438 290.844L292.656 290.844L292.656 260.188L296.406 260.188L296.406 290.844L299.844 290.844L299.563 304.031L296.125 304.031L296.125 294L270.688 294L270.688 260.188L270.688 260.188ZM329.094 260.188L332.844 260.188L332.844 294L329.094 294L329.094 266.219L310.844 294L307.125 294L307.125 260.188L310.844 260.188L310.844 288L329.094 260.188L329.094 260.188ZM340.781 276.594C340.781 273.344 341.411 270.417 342.672 267.813C343.933 265.208 345.714 263.182 348.016 261.734C350.318 260.286 352.927 259.563 355.844 259.563C360.344 259.563 363.99 261.141 366.781 264.297C369.573 267.453 370.969 271.635 370.969 276.844L370.969 277.625C370.969 280.896 370.339 283.839 369.078 286.453C367.818 289.068 366.042 291.083 363.75 292.5C361.459 293.917 358.844 294.625 355.906 294.625C351.427 294.625 347.787 293.047 344.984 289.891C342.182 286.734 340.781 282.552 340.781 277.344L340.781 276.594L340.781 276.594ZM344.531 277.625C344.531 281.667 345.578 284.984 347.672 287.578C349.766 290.172 352.511 291.469 355.906 291.469C359.281 291.469 362.016 290.172 364.109 287.578C366.203 284.984 367.25 281.563 367.25 277.313L367.25 276.594C367.25 274.01 366.771 271.646 365.813 269.5C364.854 267.354 363.51 265.693 361.781 264.516C360.052 263.339 358.073 262.75 355.844 262.75C352.511 262.75 349.792 264.057 347.688 266.672C345.583 269.286 344.531 272.708 344.531 276.938L344.531 277.625L344.531 277.625ZM404.656 294L400.906 294L400.906 278.5L382.688 278.5L382.688 294L378.938 294L378.938 260.188L382.688 260.188L382.688 275.344L400.906 275.344L400.906 260.188L404.656 260.188L404.656 294L404.656 294ZM440.625 294L436.875 294L436.875 278.5L418.656 278.5L418.656 294L414.906 294L414.906 260.188L418.656 260.188L418.656 275.344L436.875 275.344L436.875 260.188L440.625 260.188L440.625 294L440.625 294ZM454.75 272.469L464.5 272.469C467 272.469 469.193 272.922 471.078 273.828C472.963 274.734 474.39 275.99 475.359 277.594C476.328 279.198 476.813 281.063 476.813 283.188C476.813 286.458 475.693 289.078 473.453 291.047C471.214 293.016 468.188 294 464.375 294L451.031 294L451.031 260.188L454.75 260.188L454.75 272.469L454.75 272.469ZM454.75 275.656L454.75 290.844L464.438 290.844C467.125 290.844 469.235 290.167 470.766 288.813C472.297 287.458 473.063 285.604 473.063 283.25C473.063 281 472.318 279.182 470.828 277.797C469.339 276.411 467.302 275.698 464.719 275.656L454.75 275.656L454.75 275.656ZM488.281 294L484.531 294L484.531 260.188L488.281 260.188L488.281 294L488.281 294ZM509.313 273.906L518.438 260.188L522.875 260.188L511.406 276.781L523.375 294L518.969 294L509.344 279.688L499.719 294L495.313 294L507.25 276.781L495.781 260.188L500.188 260.188L509.313 273.906L509.313 273.906ZM569.656 263.375L557.344 263.375L557.344 294L553.594 294L553.594 263.375L541.75 263.375L541.75 260.188L569.656 260.188L569.656 263.375L569.656 263.375ZM586.375 294.625C583.5 294.625 580.901 293.917 578.578 292.5C576.255 291.083 574.448 289.109 573.156 286.578C571.864 284.047 571.219 281.208 571.219 278.063L571.219 276.719C571.219 273.469 571.849 270.542 573.109 267.938C574.369 265.333 576.125 263.286 578.375 261.797C580.625 260.307 583.062 259.563 585.688 259.563C589.792 259.563 593.047 260.964 595.453 263.766C597.859 266.568 599.063 270.396 599.063 275.25L599.063 277.344L574.938 277.344L574.938 278.063C574.938 281.896 576.036 285.089 578.234 287.641C580.432 290.193 583.197 291.469 586.531 291.469C588.531 291.469 590.296 291.104 591.828 290.375C593.359 289.646 594.75 288.479 596 286.875L598.344 288.656C595.594 292.635 591.604 294.625 586.375 294.625L586.375 294.625ZM585.688 262.75C582.875 262.75 580.505 263.781 578.578 265.844C576.651 267.906 575.48 270.677 575.063 274.156L595.344 274.156L595.344 273.75C595.24 270.5 594.313 267.854 592.563 265.813C590.813 263.771 588.521 262.75 585.688 262.75L585.688 262.75ZM616.969 273.906L626.094 260.188L630.531 260.188L619.063 276.781L631.031 294L626.625 294L617 279.688L607.375 294L602.969 294L614.906 276.781L603.438 260.188L607.844 260.188L616.969 273.906L616.969 273.906ZM663.438 294L659.688 294L659.688 278.5L641.469 278.5L641.469 294L637.719 294L637.719 260.188L641.469 260.188L641.469 275.344L659.688 275.344L659.688 260.188L663.438 260.188L663.438 294L663.438 294ZM671.375 276.594C671.375 273.344 672.005 270.417 673.266 267.813C674.526 265.208 676.307 263.182 678.609 261.734C680.912 260.286 683.521 259.563 686.438 259.563C690.938 259.563 694.584 261.141 697.375 264.297C700.167 267.453 701.563 271.635 701.563 276.844L701.563 277.625C701.563 280.896 700.933 283.839 699.672 286.453C698.411 289.068 696.635 291.083 694.344 292.5C692.052 293.917 689.437 294.625 686.5 294.625C682.021 294.625 678.38 293.047 675.578 289.891C672.776 286.734 671.375 282.552 671.375 277.344L671.375 276.594L671.375 276.594ZM675.125 277.625C675.125 281.667 676.172 284.984 678.266 287.578C680.359 290.172 683.104 291.469 686.5 291.469C689.875 291.469 692.61 290.172 694.703 287.578C696.797 284.984 697.844 281.563 697.844 277.313L697.844 276.594C697.844 274.01 697.365 271.646 696.406 269.5C695.448 267.354 694.104 265.693 692.375 264.516C690.646 263.339 688.667 262.75 686.438 262.75C683.105 262.75 680.386 264.057 678.281 266.672C676.177 269.286 675.125 272.708 675.125 276.938L675.125 277.625L675.125 277.625ZM734.781 260.188L734.781 294L731.031 294L731.031 263.438L717.188 263.438L716.594 276.081C716.344 280.764 715.875 284.338 715.188 286.804C714.5 289.27 713.479 291.086 712.125 292.252C710.771 293.417 708.969 294 706.719 294L705.281 294L705.281 290.688L706.438 290.625C708.583 290.583 710.125 289.542 711.063 287.5C712 285.458 712.614 281.813 712.906 276.563L713.594 260.188L734.781 260.188L734.781 260.188ZM742.75 276.594C742.75 273.344 743.38 270.417 744.641 267.813C745.901 265.208 747.682 263.182 749.984 261.734C752.287 260.286 754.896 259.563 757.813 259.563C762.313 259.563 765.959 261.141 768.75 264.297C771.542 267.453 772.938 271.635 772.938 276.844L772.938 277.625C772.938 280.896 772.308 283.839 771.047 286.453C769.786 289.068 768.01 291.083 765.719 292.5C763.427 293.917 760.812 294.625 757.875 294.625C753.396 294.625 749.755 293.047 746.953 289.891C744.151 286.734 742.75 282.552 742.75 277.344L742.75 276.594L742.75 276.594ZM746.5 277.625C746.5 281.667 747.547 284.984 749.641 287.578C751.734 290.172 754.479 291.469 757.875 291.469C761.25 291.469 763.985 290.172 766.078 287.578C768.172 284.984 769.219 281.563 769.219 277.313L769.219 276.594C769.219 274.01 768.74 271.646 767.781 269.5C766.823 267.354 765.479 265.693 763.75 264.516C762.021 263.339 760.042 262.75 757.813 262.75C754.48 262.75 751.761 264.057 749.656 266.672C747.552 269.286 746.5 272.708 746.5 276.938L746.5 277.625L746.5 277.625ZM801.719 263.438L784.625 263.438L784.625 294L780.875 294L780.875 260.188L801.719 260.188L801.719 263.438L801.719 263.438ZM829.844 260.188L833.594 260.188L833.594 294L829.844 294L829.844 266.219L811.594 294L807.875 294L807.875 260.188L811.594 260.188L811.594 288L829.844 260.188L829.844 260.188ZM865.813 260.188L869.563 260.188L869.563 294L865.813 294L865.813 266.219L847.563 294L843.844 294L843.844 260.188L847.563 260.188L847.563 288L865.813 260.188L865.813 260.188ZM865.625 248C865.625 250.396 864.807 252.333 863.172 253.813C861.537 255.292 859.344 256.031 856.594 256.031C853.885 256.031 851.703 255.297 850.047 253.828C848.391 252.359 847.563 250.417 847.563 248L850.75 248C850.75 249.729 851.266 251.052 852.297 251.969C853.328 252.885 854.761 253.344 856.594 253.344C858.427 253.344 859.86 252.865 860.891 251.906C861.922 250.948 862.438 249.646 862.438 248L865.625 248L865.625 248Z" id="информационных-технологий" fill="#1976D2" fill-rule="evenodd" stroke="none" />
  <path d="M354.188 195.914C354.188 205.992 352.406 214.828 348.844 222.422C345.281 230.016 340.184 235.875 333.551 240C326.918 244.125 319.313 246.188 310.734 246.188C302.25 246.188 294.68 244.148 288.023 240.07C281.367 235.992 276.211 230.168 272.555 222.598C268.898 215.027 267.047 206.321 267 196.477L267 191.414C267 181.336 268.816 172.465 272.449 164.801C276.082 157.137 281.215 151.254 287.848 147.152C294.48 143.051 302.063 141 310.594 141C319.125 141 326.707 143.051 333.34 147.152C339.973 151.254 345.105 157.137 348.738 164.801C352.371 172.465 354.188 181.313 354.188 191.344L354.188 195.914L354.188 195.914ZM332.813 191.273C332.813 180.539 330.891 172.383 327.047 166.805C323.203 161.227 317.719 158.438 310.594 158.438C303.516 158.438 298.055 161.191 294.211 166.699C290.367 172.207 288.422 180.281 288.375 190.922L288.375 195.914C288.375 206.367 290.297 214.477 294.141 220.242C297.984 226.008 303.516 228.891 310.734 228.891C317.812 228.891 323.25 226.113 327.047 220.559C330.844 215.004 332.766 206.906 332.813 196.266L332.813 191.273L332.813 191.273Z" id="О-" fill="#1976D2" fill-rule="evenodd" stroke="none" />
  <path d="M184.25 142.375L163.086 142.375L163.086 57.086L122.094 57.086L122.094 142.375L101 142.375L101 40L184.25 40L184.25 142.375L184.25 142.375Z" id="П--" fill="#1976D2" stroke="none" />
  <path d="M217.094 157.305L217.094 193.375L196 193.375L196 91L235.937 91C243.625 91 250.387 92.4062 256.223 95.2187C262.059 98.0312 266.547 102.027 269.687 107.207C272.828 112.387 274.398 118.281 274.398 124.891C274.398 134.922 270.965 142.832 264.098 148.621C257.23 154.41 247.727 157.305 235.586 157.305L217.094 157.305L217.094 157.305ZM217.094 140.219L235.937 140.219C241.516 140.219 245.769 138.906 248.699 136.281C251.629 133.656 253.094 129.906 253.094 125.031C253.094 120.016 251.617 115.961 248.664 112.867C245.711 109.773 241.633 108.18 236.43 108.086L217.094 108.086L217.094 140.219L217.094 140.219Z" id="Р" fill="#1976D2" fill-rule="evenodd" stroke="none" />
</svg>